<svg width="41" height="41" viewBox="0 0 41 41" fill="none" xmlns="http://www.w3.org/2000/svg">
<path fill-rule="evenodd" clip-rule="evenodd" d="M16.3731 40.5844C7.0293 38.6746 0 30.4082 0 20.5C0 9.17816 9.17816 0 20.5 0C24.0809 0 27.4473 0.918113 30.3767 2.53178V11.0041C30.3262 10.9249 30.2747 10.8461 30.2224 10.7678C28.7691 8.59283 26.7036 6.89766 24.2869 5.89664C21.8702 4.89562 19.211 4.63371 16.6455 5.14402C14.0799 5.65434 11.7234 6.91396 9.87371 8.7636C8.02407 10.6132 6.76444 12.9698 6.25413 15.5354C5.74381 18.1009 6.00573 20.7601 7.00675 23.1768C8.00776 25.5935 9.70293 27.659 11.8779 29.1123C13.2511 30.0298 14.7766 30.6773 16.3731 31.0299V40.5844ZM22.0783 40.9402C32.6626 40.1343 41 31.2908 41 20.5C41 15.4143 39.1481 10.7612 36.0819 7.17821V18.1156L32.4513 18.1156L30.3767 18.1156L25.7751 18.1156C25.7751 16.8202 25.391 15.5539 24.6713 14.4769C23.9517 13.3998 22.9288 12.5604 21.732 12.0646C20.5353 11.5689 19.2184 11.4392 17.9479 11.6919C16.6775 11.9447 15.5105 12.5684 14.5945 13.4844C13.6785 14.4003 13.0548 15.5674 12.802 16.8378C12.5493 18.1083 12.679 19.4252 13.1747 20.6219C13.6705 21.8187 14.5099 22.8416 15.587 23.5612C16.4044 24.1074 17.3307 24.4603 18.2961 24.5987H22.0783V40.9402ZM36.8571 24.9286C36.8571 27.0983 35.0983 28.8571 32.9286 28.8571C30.7589 28.8571 29 27.0983 29 24.9286C29 22.7589 30.7589 21 32.9286 21C35.0983 21 36.8571 22.7589 36.8571 24.9286Z" fill="#141414"/>
</svg>
