<svg width="41" height="41" viewBox="0 0 41 41" fill="none" xmlns="http://www.w3.org/2000/svg">
<path fill-rule="evenodd" clip-rule="evenodd" d="M41 20.5C41 31.8218 31.8218 41 20.5 41C9.17816 41 0 31.8218 0 20.5C0 9.17816 9.17816 0 20.5 0C31.8218 0 41 9.17816 41 20.5ZM32 23.0601C32 24.6071 30.746 25.8611 29.1991 25.8611C27.6522 25.8611 26.3982 24.6071 26.3982 23.0601C26.3982 21.5132 27.6522 20.2592 29.1991 20.2592C30.746 20.2592 32 21.5132 32 23.0601ZM27.2697 12.9641C27.307 13.0199 27.3436 13.0761 27.3797 13.1326V5.99997H31.4473V18.2027H28.8588V18.2028H24.0989C24.0989 17.2792 23.8251 16.3764 23.312 15.6085C22.7989 14.8406 22.0696 14.2421 21.2164 13.8887C20.3631 13.5353 19.4242 13.4428 18.5184 13.623C17.6126 13.8031 16.7806 14.2479 16.1276 14.9009C15.4745 15.554 15.0298 16.386 14.8496 17.2918C14.6694 18.1976 14.7619 19.1365 15.1153 19.9897C15.4688 20.843 16.0673 21.5722 16.8352 22.0853C17.4178 22.4747 18.0782 22.7263 18.7664 22.825H21.4632V35.0277H17.3956V27.4102C16.2574 27.1588 15.1698 26.6972 14.1907 26.043C12.6401 25.0069 11.4315 23.5342 10.7178 21.8112C10.0041 20.0882 9.81735 18.1923 10.1812 16.3632C10.545 14.5341 11.4431 12.8539 12.7618 11.5352C14.0805 10.2164 15.7607 9.31838 17.5898 8.95454C19.4189 8.59071 21.3149 8.77744 23.0379 9.49113C24.7609 10.2048 26.2336 11.4134 27.2697 12.9641Z" fill="white"/>
</svg>
